<svg width="1280" height="720" xmlns="http://www.w3.org/2000/svg">
  <defs>
    <radialGradient id="grad3">
      <stop offset="0%" style="stop-color:#1e3a8a;stop-opacity:1" />
      <stop offset="100%" style="stop-color:#000000;stop-opacity:1" />
    </radialGradient>
  </defs>
  <rect width="1280" height="720" fill="url(#grad3)"/>
  
  <!-- Particles -->
  <circle cx="200" cy="150" r="6" fill="#3b82f6" opacity="0.8"/>
  <circle cx="350" cy="200" r="4" fill="#60a5fa" opacity="0.7"/>
  <circle cx="500" cy="180" r="8" fill="#2563eb" opacity="0.9"/>
  <circle cx="650" cy="250" r="5" fill="#3b82f6" opacity="0.6"/>
  <circle cx="800" cy="220" r="7" fill="#60a5fa" opacity="0.8"/>
  <circle cx="950" cy="190" r="4" fill="#3b82f6" opacity="0.7"/>
  <circle cx="1100" cy="240" r="6" fill="#2563eb" opacity="0.8"/>
  
  <circle cx="250" cy="350" r="5" fill="#06b6d4" opacity="0.7"/>
  <circle cx="400" cy="400" r="7" fill="#0891b2" opacity="0.8"/>
  <circle cx="550" cy="380" r="4" fill="#06b6d4" opacity="0.6"/>
  <circle cx="700" cy="420" r="6" fill="#0891b2" opacity="0.9"/>
  <circle cx="850" cy="390" r="5" fill="#06b6d4" opacity="0.7"/>
  <circle cx="1000" cy="430" r="8" fill="#0891b2" opacity="0.8"/>
  
  <circle cx="300" cy="520" r="4" fill="#3b82f6" opacity="0.6"/>
  <circle cx="450" cy="550" r="6" fill="#60a5fa" opacity="0.8"/>
  <circle cx="600" cy="530" r="5" fill="#2563eb" opacity="0.7"/>
  <circle cx="750" cy="570" r="7" fill="#3b82f6" opacity="0.9"/>
  <circle cx="900" cy="540" r="4" fill="#60a5fa" opacity="0.6"/>
  <circle cx="1050" cy="580" r="6" fill="#3b82f6" opacity="0.8"/>
  
  <text x="640" y="680" font-family="monospace" font-size="36" fill="#94a3b8" text-anchor="middle">Particle Physics</text>
</svg>
