<svg width="1280" height="720" xmlns="http://www.w3.org/2000/svg">
  <defs>
    <linearGradient id="grad1" x1="0%" y1="0%" x2="100%" y2="100%">
      <stop offset="0%" style="stop-color:#1e293b;stop-opacity:1" />
      <stop offset="100%" style="stop-color:#0f172a;stop-opacity:1" />
    </linearGradient>
  </defs>
  <rect width="1280" height="720" fill="url(#grad1)"/>
  
  <!-- Grid -->
  <g opacity="0.3">
    <line x1="400" y1="200" x2="880" y2="200" stroke="#334155" stroke-width="2"/>
    <line x1="400" y1="280" x2="880" y2="280" stroke="#334155" stroke-width="2"/>
    <line x1="400" y1="360" x2="880" y2="360" stroke="#334155" stroke-width="2"/>
    <line x1="400" y1="440" x2="880" y2="440" stroke="#334155" stroke-width="2"/>
    <line x1="400" y1="520" x2="880" y2="520" stroke="#334155" stroke-width="2"/>
    
    <line x1="400" y1="200" x2="400" y2="520" stroke="#334155" stroke-width="2"/>
    <line x1="480" y1="200" x2="480" y2="520" stroke="#334155" stroke-width="2"/>
    <line x1="560" y1="200" x2="560" y2="520" stroke="#334155" stroke-width="2"/>
    <line x1="640" y1="200" x2="640" y2="520" stroke="#334155" stroke-width="2"/>
    <line x1="720" y1="200" x2="720" y2="520" stroke="#334155" stroke-width="2"/>
    <line x1="800" y1="200" x2="800" y2="520" stroke="#334155" stroke-width="2"/>
    <line x1="880" y1="200" x2="880" y2="520" stroke="#334155" stroke-width="2"/>
  </g>
  
  <!-- Walls -->
  <rect x="560" y="200" width="80" height="80" fill="#475569"/>
  <rect x="640" y="280" width="80" height="80" fill="#475569"/>
  <rect x="560" y="360" width="80" height="80" fill="#475569"/>
  
  <!-- Path -->
  <circle cx="440" cy="240" r="30" fill="#22c55e" opacity="0.8"/>
  <circle cx="520" cy="240" r="15" fill="#eab308"/>
  <circle cx="520" cy="320" r="15" fill="#eab308"/>
  <circle cx="520" cy="400" r="15" fill="#eab308"/>
  <circle cx="600" cy="480" r="15" fill="#eab308"/>
  <circle cx="680" cy="480" r="15" fill="#eab308"/>
  <circle cx="760" cy="480" r="15" fill="#eab308"/>
  <circle cx="840" cy="480" r="30" fill="#ef4444" opacity="0.8"/>
  
  <text x="640" y="650" font-family="monospace" font-size="36" fill="#94a3b8" text-anchor="middle">A* Pathfinding</text>
</svg>
